RobotoSerifMicroWide-HairlineItalic04ip.ufo
<glyph name="two" format="2">
  <advance width="681"/>
  <unicode hex="0032"/>
  <guideline x="466" y="151" angle="81" identifier="XhwafKHjcv"/>
  <guideline x="625" y="175" angle="0" identifier="oy7TQBlmPa"/>
  <outline>
    <contour>
      <point x="70" y="0" type="line"/>
      <point x="78" y="40" type="line"/>
      <point x="405" y="269"/>
      <point x="551" y="327"/>
      <point x="551" y="492" type="curve" smooth="yes"/>
      <point x="551" y="588"/>
      <point x="492" y="639.0"/>
      <point x="381" y="639" type="curve" smooth="yes"/>
      <point x="310" y="639"/>
      <point x="238" y="626"/>
      <point x="190" y="602" type="curve"/>
      <point x="191" y="620.0"/>
      <point x="214.0" y="648.0"/>
      <point x="232" y="630" type="curve"/>
      <point x="205" y="463" type="line"/>
      <point x="145" y="463" type="line"/>
      <point x="174" y="643" type="line"/>
      <point x="221" y="664"/>
      <point x="302" y="683"/>
      <point x="381" y="683" type="curve" smooth="yes"/>
      <point x="522" y="683"/>
      <point x="611" y="619"/>
      <point x="611" y="496" type="curve" smooth="yes"/>
      <point x="611" y="327"/>
      <point x="490" y="265"/>
      <point x="108" y="19" type="curve"/>
      <point x="106" y="45" type="line"/>
      <point x="414" y="45" type="line" smooth="yes"/>
      <point x="501.0" y="45.0"/>
      <point x="536" y="48"/>
      <point x="549" y="90" type="curve" smooth="yes"/>
      <point x="576" y="175" type="line"/>
      <point x="618" y="175" type="line"/>
      <point x="590" y="0" type="line"/>
    </contour>
  </outline>
</glyph>
<glyph name="ordmasculine" format="2">
  <advance width="556"/>
  <unicode hex="00BA"/>
  <outline>
    <contour>
      <point x="352" y="308" type="curve"/>
      <point x="493.0" y="308.0"/>
      <point x="561" y="416"/>
      <point x="561" y="535" type="curve" smooth="yes"/>
      <point x="561" y="666"/>
      <point x="478" y="730"/>
      <point x="368" y="730" type="curve"/>
      <point x="226.0" y="730.0"/>
      <point x="159" y="621"/>
      <point x="159" y="503" type="curve" smooth="yes"/>
      <point x="159" y="372"/>
      <point x="242" y="308"/>
    </contour>
    <contour>
      <point x="363" y="690" type="curve" smooth="yes"/>
      <point x="453.0" y="690.0"/>
      <point x="507" y="632"/>
      <point x="507" y="531" type="curve" smooth="yes"/>
      <point x="507" y="448"/>
      <point x="479" y="348"/>
      <point x="356" y="348" type="curve" smooth="yes"/>
      <point x="267.0" y="348.0"/>
      <point x="213" y="406"/>
      <point x="213" y="507" type="curve" smooth="yes"/>
      <point x="213" y="590"/>
      <point x="242" y="690"/>
    </contour>
  </outline>
</glyph>
<glyph name="AE" format="2">
  <advance width="1177"/>
  <unicode hex="00C6"/>
  <anchor x="730" y="741" name="top"/>
  <outline>
    <contour>
      <point x="313" y="290" type="line"/>
      <point x="290" y="247" type="line"/>
      <point x="648" y="247" type="line"/>
      <point x="655" y="290" type="line"/>
    </contour>
    <contour>
      <point x="678" y="382" type="curve"/>
      <point x="672" y="349" type="line"/>
      <point x="799" y="345"/>
      <point x="906" y="341"/>
      <point x="1034" y="338" type="curve"/>
      <point x="1042" y="393" type="line"/>
      <point x="915" y="390"/>
      <point x="806" y="386"/>
    </contour>
    <contour>
      <point x="9" y="0" type="line"/>
      <point x="249" y="0" type="line"/>
      <point x="255" y="40" type="line"/>
      <point x="245" y="40" type="line" smooth="yes"/>
      <point x="187" y="40"/>
      <point x="144" y="45"/>
      <point x="144" y="58" type="curve"/>
      <point x="676" y="669" type="line"/>
      <point x="695" y="669" type="line"/>
      <point x="602" y="80" type="line" smooth="yes"/>
      <point x="597" y="50"/>
      <point x="557" y="40"/>
      <point x="505" y="40" type="curve" smooth="yes"/>
      <point x="493" y="40" type="line"/>
      <point x="487" y="0" type="line"/>
      <point x="1108" y="0" type="line"/>
      <point x="1143" y="218" type="line"/>
      <point x="1104" y="218" type="line"/>
      <point x="1066" y="87" type="line" smooth="yes"/>
      <point x="1057" y="57"/>
      <point x="1014" y="44"/>
      <point x="919" y="44" type="curve" smooth="yes"/>
      <point x="645" y="44" type="line"/>
      <point x="743" y="666" type="line"/>
      <point x="987" y="666" type="line" smooth="yes"/>
      <point x="1082" y="666"/>
      <point x="1122" y="653"/>
      <point x="1121" y="623" type="curve" smooth="yes"/>
      <point x="1118" y="517" type="line"/>
      <point x="1157" y="517" type="line"/>
      <point x="1187" y="710" type="line"/>
      <point x="501" y="710" type="line"/>
      <point x="495" y="670" type="line"/>
      <point x="507" y="670" type="line" smooth="yes"/>
      <point x="560" y="670"/>
      <point x="598" y="660"/>
      <point x="610" y="651" type="curve"/>
      <point x="129" y="108" type="line" smooth="yes"/>
      <point x="89" y="62"/>
      <point x="65" y="40"/>
      <point x="22" y="40" type="curve" smooth="yes"/>
      <point x="15" y="40" type="line"/>
    </contour>
  </outline>
</glyph>
<glyph name="itilde" format="2">
  <advance width="365"/>
  <unicode hex="0129"/>
  <outline>
    <contour>
      <point x="331" y="669" type="curve" smooth="yes"/>
      <point x="379" y="669"/>
      <point x="400" y="697"/>
      <point x="428" y="827" type="curve"/>
      <point x="388" y="833" type="line"/>
      <point x="369" y="741"/>
      <point x="360" y="710"/>
      <point x="333" y="710" type="curve" smooth="yes"/>
      <point x="284.0" y="710.0"/>
      <point x="297" y="830"/>
      <point x="212" y="830" type="curve" smooth="yes"/>
      <point x="161" y="830"/>
      <point x="135" y="798"/>
      <point x="114" y="677" type="curve"/>
      <point x="154" y="671" type="line"/>
      <point x="171" y="757"/>
      <point x="178" y="788"/>
      <point x="206" y="788" type="curve" smooth="yes"/>
      <point x="259.0" y="788.0"/>
      <point x="243" y="669"/>
    </contour>
    <contour>
      <point x="228" y="126" type="curve" smooth="yes"/>
      <point x="297" y="565" type="line"/>
      <point x="142" y="565" type="line"/>
      <point x="136" y="527" type="line"/>
      <point x="163" y="523" type="line" smooth="yes"/>
      <point x="230" y="513"/>
      <point x="240" y="502"/>
      <point x="236" y="477" type="curve" smooth="yes"/>
      <point x="185" y="155" type="line" smooth="yes"/>
      <point x="177" y="106"/>
      <point x="173" y="84"/>
      <point x="173" y="63" type="curve" smooth="yes"/>
      <point x="173" y="18"/>
      <point x="199" y="0"/>
      <point x="248" y="0" type="curve" smooth="yes"/>
      <point x="281" y="0"/>
      <point x="309" y="0"/>
      <point x="343" y="0" type="curve"/>
      <point x="349" y="40" type="line"/>
      <point x="320" y="40"/>
      <point x="290" y="40"/>
      <point x="261" y="40" type="curve" smooth="yes"/>
      <point x="235" y="40"/>
      <point x="222" y="48"/>
      <point x="222" y="70" type="curve" smooth="yes"/>
      <point x="222" y="80"/>
      <point x="223" y="91"/>
    </contour>
  </outline>
</glyph>
<glyph name="Iogonek" format="2">
  <advance width="381"/>
  <unicode hex="012E"/>
  <outline>
    <contour>
      <point x="243" y="35" type="line"/>
      <point x="39" y="-72"/>
      <point x="16" y="-112"/>
      <point x="16" y="-166" type="curve" smooth="yes"/>
      <point x="16" y="-216"/>
      <point x="49" y="-252"/>
      <point x="130" y="-252" type="curve" smooth="yes"/>
      <point x="191.0" y="-252.0"/>
      <point x="232" y="-227"/>
      <point x="270" y="-189" type="curve"/>
      <point x="243" y="-159" type="line"/>
      <point x="218" y="-183"/>
      <point x="187" y="-214"/>
      <point x="138" y="-214" type="curve" smooth="yes"/>
      <point x="88.0" y="-214.0"/>
      <point x="74" y="-189"/>
      <point x="74" y="-158" type="curve" smooth="yes"/>
      <point x="74.0" y="-103.0"/>
      <point x="120" y="-69"/>
      <point x="260" y="11" type="curve"/>
    </contour>
    <contour>
      <point x="197" y="84" type="line" smooth="yes"/>
      <point x="192" y="54"/>
      <point x="159" y="40"/>
      <point x="99" y="40" type="curve" smooth="yes"/>
      <point x="65" y="40" type="line"/>
      <point x="59" y="0" type="line"/>
      <point x="355" y="0" type="line"/>
      <point x="361" y="40" type="line"/>
      <point x="327" y="40" type="line" smooth="yes"/>
      <point x="268" y="40.0"/>
      <point x="240" y="52"/>
      <point x="244" y="80" type="curve" smooth="yes"/>
      <point x="330" y="626" type="line" smooth="yes"/>
      <point x="335" y="656"/>
      <point x="367" y="670"/>
      <point x="427" y="670" type="curve" smooth="yes"/>
      <point x="461" y="670" type="line"/>
      <point x="467" y="710" type="line"/>
      <point x="171" y="710" type="line"/>
      <point x="165" y="670" type="line"/>
      <point x="200" y="670" type="line" smooth="yes"/>
      <point x="260.0" y="670.0"/>
      <point x="287" y="653"/>
      <point x="283" y="626" type="curve" smooth="yes"/>
    </contour>
  </outline>
</glyph>
<glyph name="lslash" format="2">
  <advance width="353"/>
  <unicode hex="0142"/>
  <outline>
    <contour>
      <point x="41" y="251" type="line"/>
      <point x="441" y="530" type="line"/>
      <point x="449" y="579" type="line"/>
      <point x="49" y="301" type="line"/>
    </contour>
    <contour>
      <point x="226" y="170" type="curve" smooth="yes"/>
      <point x="323" y="780" type="line"/>
      <point x="167" y="780" type="line"/>
      <point x="161" y="742" type="line"/>
      <point x="188" y="738" type="line" smooth="yes"/>
      <point x="255" y="728"/>
      <point x="265" y="718"/>
      <point x="261" y="692" type="curve" smooth="yes"/>
      <point x="178" y="170" type="line" smooth="yes"/>
      <point x="169" y="115"/>
      <point x="164" y="85"/>
      <point x="164" y="62" type="curve" smooth="yes"/>
      <point x="164" y="17"/>
      <point x="187" y="0"/>
      <point x="236" y="0" type="curve" smooth="yes"/>
      <point x="279" y="0"/>
      <point x="309" y="0"/>
      <point x="335" y="0" type="curve"/>
      <point x="341" y="40" type="line"/>
      <point x="311" y="40"/>
      <point x="276" y="40"/>
      <point x="249" y="40" type="curve" smooth="yes"/>
      <point x="224" y="40"/>
      <point x="214" y="48"/>
      <point x="214" y="70" type="curve" smooth="yes"/>
      <point x="214" y="89"/>
      <point x="219" y="127"/>
    </contour>
  </outline>
</glyph>
<glyph name="schwa" format="2">
  <advance width="596"/>
  <unicode hex="0259"/>
  <outline>
    <contour>
      <point x="343" y="575" type="curve" smooth="yes"/>
      <point x="234" y="575"/>
      <point x="147" y="523"/>
      <point x="103" y="461" type="curve"/>
      <point x="138" y="433" type="line"/>
      <point x="181" y="493"/>
      <point x="243" y="534"/>
      <point x="338" y="534" type="curve" smooth="yes"/>
      <point x="456" y="534"/>
      <point x="525" y="475"/>
      <point x="525" y="356" type="curve" smooth="yes"/>
      <point x="525" y="185"/>
      <point x="437" y="28"/>
      <point x="262" y="28" type="curve" smooth="yes"/>
      <point x="175" y="28"/>
      <point x="132" y="62"/>
      <point x="132" y="121" type="curve" smooth="yes"/>
      <point x="132" y="217"/>
      <point x="226" y="292"/>
      <point x="541" y="305" type="curve"/>
      <point x="541" y="341" type="line"/>
      <point x="217" y="329"/>
      <point x="80" y="250"/>
      <point x="80" y="122" type="curve" smooth="yes"/>
      <point x="80" y="41"/>
      <point x="135" y="-12"/>
      <point x="256" y="-12" type="curve" smooth="yes"/>
      <point x="457" y="-12"/>
      <point x="579" y="153"/>
      <point x="579" y="353" type="curve" smooth="yes"/>
      <point x="579" y="492"/>
      <point x="500" y="575"/>
    </contour>
  </outline>
</glyph>
<glyph name="dotaccent" format="2">
  <advance width="530"/>
  <unicode hex="02D9"/>
  <guideline x="260" y="636" angle="81" identifier="PXOmJ7QlXK"/>
  <anchor x="249" y="565" name="_top"/>
  <outline>
    <contour>
      <point x="277" y="699" type="curve" smooth="yes"/>
      <point x="307" y="699"/>
      <point x="329" y="719"/>
      <point x="329" y="752" type="curve" smooth="yes"/>
      <point x="329" y="784"/>
      <point x="307" y="804"/>
      <point x="277" y="804" type="curve" smooth="yes"/>
      <point x="245" y="804"/>
      <point x="226" y="784"/>
      <point x="226" y="752" type="curve" smooth="yes"/>
      <point x="226" y="719"/>
      <point x="245" y="699"/>
    </contour>
  </outline>
</glyph>
<glyph name="franc" format="2">
  <advance width="680"/>
  <unicode hex="20A3"/>
  <outline>
    <contour>
      <point x="59" y="0" type="line"/>
      <point x="357" y="0" type="line"/>
      <point x="363" y="40" type="line"/>
      <point x="327" y="40" type="line" smooth="yes"/>
      <point x="288.0" y="40"/>
      <point x="227" y="47"/>
      <point x="229" y="59" type="curve" smooth="yes"/>
      <point x="325" y="666" type="line"/>
      <point x="513" y="666" type="line" smooth="yes"/>
      <point x="608.0" y="666.0"/>
      <point x="648" y="653"/>
      <point x="647" y="623" type="curve" smooth="yes"/>
      <point x="644" y="517" type="line"/>
      <point x="683" y="517" type="line"/>
      <point x="713" y="710" type="line"/>
      <point x="171" y="710" type="line"/>
      <point x="165" y="670" type="line"/>
      <point x="188" y="670" type="line" smooth="yes"/>
      <point x="248.0" y="670.0"/>
      <point x="275" y="653"/>
      <point x="271" y="626" type="curve" smooth="yes"/>
      <point x="185" y="84" type="line" smooth="yes"/>
      <point x="180" y="54"/>
      <point x="148" y="40"/>
      <point x="88" y="40" type="curve" smooth="yes"/>
      <point x="65" y="40" type="line"/>
    </contour>
    <contour>
      <point x="265" y="418" type="curve"/>
      <point x="260" y="385" type="line"/>
      <point x="347" y="381"/>
      <point x="438" y="377"/>
      <point x="565" y="374" type="curve"/>
      <point x="574" y="429" type="line"/>
      <point x="447" y="426"/>
      <point x="354" y="422"/>
    </contour>
    <contour>
      <point x="89" y="240" type="line"/>
      <point x="83" y="204" type="line"/>
      <point x="406" y="204" type="line"/>
      <point x="412" y="240" type="line"/>
    </contour>
  </outline>
</glyph>
<glyph name="won" format="2">
  <advance width="680"/>
  <unicode hex="20A9"/>
  <guideline x="708" y="338" angle="81" identifier="AHo0ujZJK4"/>
  <outline>
    <contour>
      <point x="179" y="0" type="line"/>
      <point x="232" y="0" type="line"/>
      <point x="458" y="703" type="line"/>
      <point x="455" y="707" type="line"/>
      <point x="461" y="0" type="line"/>
      <point x="514" y="0" type="line"/>
      <point x="674" y="627" type="line" smooth="yes"/>
      <point x="683" y="661"/>
      <point x="700.0" y="670.0"/>
      <point x="727" y="670" type="curve" smooth="yes"/>
      <point x="736" y="670" type="line"/>
      <point x="742" y="710" type="line"/>
      <point x="617" y="710" type="line"/>
      <point x="611" y="670" type="line"/>
      <point x="615" y="670" type="line" smooth="yes"/>
      <point x="643" y="670"/>
      <point x="647" y="661"/>
      <point x="645" y="652" type="curve" smooth="yes"/>
      <point x="483" y="8" type="line"/>
      <point x="498" y="11" type="line"/>
      <point x="491" y="710" type="line"/>
      <point x="426" y="710" type="line"/>
      <point x="202" y="12" type="line"/>
      <point x="215" y="15" type="line"/>
      <point x="250" y="660" type="line"/>
      <point x="251" y="667"/>
      <point x="261" y="670"/>
      <point x="284" y="670" type="curve" smooth="yes"/>
      <point x="288" y="670" type="line"/>
      <point x="294" y="710" type="line"/>
      <point x="164" y="710" type="line"/>
      <point x="158" y="670" type="line"/>
      <point x="166" y="670" type="line" smooth="yes"/>
      <point x="198" y="670"/>
      <point x="207" y="661"/>
      <point x="206" y="633" type="curve" smooth="yes"/>
    </contour>
    <contour>
      <point x="107" y="501" type="line"/>
      <point x="101" y="462" type="line"/>
      <point x="223" y="462" type="line"/>
      <point x="220" y="467" type="line"/>
      <point x="373" y="478" type="line"/>
      <point x="374" y="501" type="line"/>
    </contour>
    <contour>
      <point x="477" y="478" type="line"/>
      <point x="619" y="467" type="line"/>
      <point x="615" y="462" type="line"/>
      <point x="727" y="462" type="line"/>
      <point x="733" y="501" type="line"/>
      <point x="484" y="501" type="line"/>
    </contour>
    <contour>
      <point x="295" y="245" type="line"/>
      <point x="475" y="245" type="line"/>
      <point x="471" y="266" type="line"/>
      <point x="395" y="287" type="line"/>
      <point x="309" y="266" type="line"/>
    </contour>
    <contour>
      <point x="207" y="285" type="line"/>
      <point x="73" y="285" type="line"/>
      <point x="67" y="246" type="line"/>
      <point x="212" y="246" type="line"/>
    </contour>
    <contour>
      <point x="557" y="246" type="line"/>
      <point x="693" y="246" type="line"/>
      <point x="699" y="285" type="line"/>
      <point x="568" y="285" type="line"/>
    </contour>
  </outline>
</glyph>
<glyph name="dong" format="2">
  <advance width="680"/>
  <unicode hex="20AB"/>
  <outline>
    <contour>
      <point x="280" y="-10" type="curve" smooth="yes"/>
      <point x="355.0" y="-10.0"/>
      <point x="413" y="23"/>
      <point x="483" y="131" type="curve"/>
      <point x="483" y="183" type="line"/>
      <point x="417" y="78"/>
      <point x="363" y="35"/>
      <point x="289" y="35" type="curve" smooth="yes"/>
      <point x="203" y="35.0"/>
      <point x="158" y="98"/>
      <point x="158" y="230" type="curve" smooth="yes"/>
      <point x="158" y="370"/>
      <point x="210" y="534"/>
      <point x="353" y="534" type="curve" smooth="yes"/>
      <point x="449" y="534"/>
      <point x="486" y="465"/>
      <point x="511" y="348" type="curve"/>
      <point x="534" y="384" type="line"/>
      <point x="500" y="527"/>
      <point x="452" y="578"/>
      <point x="351" y="578" type="curve" smooth="yes"/>
      <point x="173" y="578"/>
      <point x="100" y="398"/>
      <point x="100" y="232" type="curve" smooth="yes"/>
      <point x="100.0" y="76"/>
      <point x="162" y="-10.0"/>
    </contour>
    <contour>
      <point x="547" y="0" type="curve" smooth="yes"/>
      <point x="571" y="0"/>
      <point x="596" y="0"/>
      <point x="620" y="0" type="curve"/>
      <point x="624" y="40" type="line"/>
      <point x="599" y="40"/>
      <point x="575" y="40"/>
      <point x="550" y="40" type="curve" smooth="yes"/>
      <point x="525" y="40"/>
      <point x="514" y="49"/>
      <point x="514" y="72" type="curve" smooth="yes"/>
      <point x="514.0" y="95.0"/>
      <point x="514" y="126"/>
      <point x="532" y="241" type="curve" smooth="yes"/>
      <point x="617" y="780" type="line"/>
      <point x="569" y="780" type="line"/>
      <point x="471" y="152" type="line"/>
      <point x="468" y="141" type="line"/>
      <point x="468" y="133"/>
      <point x="466" y="125"/>
      <point x="466" y="117" type="curve" smooth="yes"/>
      <point x="466" y="98"/>
      <point x="464" y="81"/>
      <point x="464" y="69" type="curve" smooth="yes"/>
      <point x="464.0" y="16"/>
      <point x="496" y="0.0"/>
    </contour>
    <contour>
      <point x="96" y="-174" type="line"/>
      <point x="581" y="-174" type="line"/>
      <point x="588" y="-135" type="line"/>
      <point x="103" y="-135" type="line"/>
    </contour>
    <contour>
      <point x="327" y="668" type="line"/>
      <point x="680" y="668" type="line"/>
      <point x="686" y="707" type="line"/>
      <point x="333" y="707" type="line"/>
    </contour>
  </outline>
</glyph>
<glyph name="peso" format="2">
  <advance width="680"/>
  <unicode hex="20B1"/>
  <outline>
    <contour>
      <point x="141" y="487" type="line"/>
      <point x="136" y="448" type="line"/>
      <point x="245" y="448" type="line"/>
      <point x="245" y="450" type="line"/>
      <point x="621" y="450" type="line"/>
      <point x="628" y="448" type="line"/>
      <point x="741" y="448" type="line"/>
      <point x="747" y="487" type="line"/>
      <point x="636" y="487" type="line"/>
      <point x="630" y="485" type="line"/>
      <point x="248" y="485" type="line"/>
      <point x="255" y="487" type="line"/>
    </contour>
    <contour>
      <point x="261" y="258" type="line"/>
      <point x="325" y="666" type="line"/>
      <point x="414" y="666" type="line" smooth="yes"/>
      <point x="547.0" y="666.0"/>
      <point x="605" y="604"/>
      <point x="605" y="485" type="curve" smooth="yes"/>
      <point x="605" y="337"/>
      <point x="524.0" y="258.0"/>
      <point x="357" y="258" type="curve" smooth="yes"/>
    </contour>
    <contour>
      <point x="171" y="710" type="line"/>
      <point x="165" y="670" type="line"/>
      <point x="188" y="670" type="line" smooth="yes"/>
      <point x="248" y="670"/>
      <point x="275" y="653"/>
      <point x="271" y="626" type="curve" smooth="yes"/>
      <point x="185" y="84" type="line" smooth="yes"/>
      <point x="180" y="54"/>
      <point x="148" y="40"/>
      <point x="88" y="40" type="curve" smooth="yes"/>
      <point x="65" y="40" type="line"/>
      <point x="59" y="0" type="line"/>
      <point x="351" y="0" type="line"/>
      <point x="357" y="40" type="line"/>
      <point x="326" y="40" type="line" smooth="yes"/>
      <point x="287" y="40"/>
      <point x="227" y="47"/>
      <point x="229" y="59" type="curve" smooth="yes"/>
      <point x="254" y="216" type="line"/>
      <point x="349" y="216" type="line" smooth="yes"/>
      <point x="523.0" y="216.0"/>
      <point x="659" y="289"/>
      <point x="659" y="491" type="curve" smooth="yes"/>
      <point x="659" y="631"/>
      <point x="577.0" y="710.0"/>
      <point x="420" y="710" type="curve" smooth="yes"/>
    </contour>
  </outline>
</glyph>
<glyph name="guarani" format="2">
  <advance width="680"/>
  <unicode hex="20B2"/>
  <guideline x="189" y="27" angle="81" identifier="3JqF0RTwk4"/>
  <guideline x="227" y="14" angle="81" identifier="qDuKblcEgV"/>
  <guideline x="386" y="49" angle="81" identifier="GN4GnPkyEF"/>
  <outline>
    <contour>
      <point x="429" y="790" type="line"/>
      <point x="413" y="689" type="line"/>
      <point x="414" y="681" type="line"/>
      <point x="311" y="32" type="line"/>
      <point x="307" y="21" type="line"/>
      <point x="285" y="-120" type="line"/>
      <point x="325" y="-120" type="line"/>
      <point x="347" y="21" type="line"/>
      <point x="347" y="32" type="line"/>
      <point x="450" y="681" type="line"/>
      <point x="453" y="689" type="line"/>
      <point x="469" y="790" type="line"/>
    </contour>
    <contour>
      <point x="367" y="10" type="curve" smooth="yes"/>
      <point x="452" y="10"/>
      <point x="511" y="39"/>
      <point x="553" y="73" type="curve"/>
      <point x="586" y="282" type="line" smooth="yes"/>
      <point x="591" y="311"/>
      <point x="614" y="318"/>
      <point x="644" y="318" type="curve" smooth="yes"/>
      <point x="654" y="318" type="line"/>
      <point x="661" y="358" type="line"/>
      <point x="554" y="358" type="line"/>
      <point x="545" y="302" type="line"/>
      <point x="545" y="302" type="line"/>
      <point x="545" y="302"/>
      <point x="543" y="289"/>
      <point x="538" y="258" type="curve" smooth="yes"/>
      <point x="512" y="97" type="line"/>
      <point x="494" y="78"/>
      <point x="445" y="49"/>
      <point x="373" y="49" type="curve" smooth="yes"/>
      <point x="256" y="49"/>
      <point x="173" y="127"/>
      <point x="173" y="317" type="curve" smooth="yes"/>
      <point x="173" y="525"/>
      <point x="243" y="661.0"/>
      <point x="420" y="661" type="curve" smooth="yes"/>
      <point x="478" y="661"/>
      <point x="552" y="654"/>
      <point x="607" y="602" type="curve"/>
      <point x="600" y="627"/>
      <point x="592" y="646"/>
      <point x="585" y="656" type="curve"/>
      <point x="563" y="516" type="line"/>
      <point x="612" y="516" type="line"/>
      <point x="632" y="639" type="line"/>
      <point x="601" y="661"/>
      <point x="529" y="700"/>
      <point x="419" y="700" type="curve" smooth="yes"/>
      <point x="186" y="700"/>
      <point x="115" y="496"/>
      <point x="115" y="327" type="curve" smooth="yes"/>
      <point x="115.0" y="114"/>
      <point x="214" y="10.0"/>
    </contour>
  </outline>
</glyph>
<glyph name="six.den" format="2">
  <advance width="528"/>
  <unicode hex="E408"/>
  <outline>
    <contour>
      <point x="293" y="-6" type="curve" smooth="yes"/>
      <point x="190" y="-6"/>
      <point x="128" y="55"/>
      <point x="128" y="173" type="curve" smooth="yes"/>
      <point x="128" y="308"/>
      <point x="220" y="420"/>
      <point x="430" y="436" type="curve"/>
      <point x="435" y="406" type="line"/>
      <point x="250" y="393"/>
      <point x="172" y="298"/>
      <point x="172" y="173" type="curve" smooth="yes"/>
      <point x="172" y="87"/>
      <point x="207" y="29"/>
      <point x="290" y="29" type="curve" smooth="yes"/>
      <point x="370" y="29"/>
      <point x="405" y="75"/>
      <point x="405" y="146" type="curve" smooth="yes"/>
      <point x="405" y="211"/>
      <point x="375" y="249"/>
      <point x="309" y="249" type="curve" smooth="yes"/>
      <point x="253" y="249"/>
      <point x="201" y="218"/>
      <point x="165" y="138" type="curve"/>
      <point x="162" y="167" type="line"/>
      <point x="191" y="241"/>
      <point x="247" y="284"/>
      <point x="322" y="284" type="curve" smooth="yes"/>
      <point x="407" y="284"/>
      <point x="452" y="230"/>
      <point x="452" y="145" type="curve" smooth="yes"/>
      <point x="452" y="58"/>
      <point x="389" y="-6"/>
    </contour>
  </outline>
</glyph>
<glyph name="eight.den" format="2">
  <advance width="518"/>
  <unicode hex="E40A"/>
  <outline>
    <contour>
      <point x="258" y="-6" type="curve" smooth="yes"/>
      <point x="365" y="-6"/>
      <point x="442" y="38"/>
      <point x="442" y="124" type="curve" smooth="yes"/>
      <point x="442" y="196"/>
      <point x="390" y="228"/>
      <point x="295" y="228" type="curve" smooth="yes"/>
      <point x="199" y="228"/>
      <point x="112" y="190"/>
      <point x="112" y="103" type="curve" smooth="yes"/>
      <point x="112" y="35"/>
      <point x="161" y="-6"/>
    </contour>
    <contour>
      <point x="293" y="215" type="curve" smooth="yes"/>
      <point x="385" y="215"/>
      <point x="455" y="253"/>
      <point x="455" y="328" type="curve" smooth="yes"/>
      <point x="455" y="383"/>
      <point x="408" y="421"/>
      <point x="326" y="421" type="curve" smooth="yes"/>
      <point x="233" y="421"/>
      <point x="162" y="383"/>
      <point x="162" y="304" type="curve" smooth="yes"/>
      <point x="162" y="253"/>
      <point x="201" y="215"/>
    </contour>
    <contour>
      <point x="297" y="238" type="curve" smooth="yes"/>
      <point x="237" y="238"/>
      <point x="209" y="264"/>
      <point x="209" y="306" type="curve" smooth="yes"/>
      <point x="209" y="359"/>
      <point x="250" y="387"/>
      <point x="320" y="387" type="curve" smooth="yes"/>
      <point x="379" y="387"/>
      <point x="408" y="360"/>
      <point x="408" y="320" type="curve" smooth="yes"/>
      <point x="408" y="266"/>
      <point x="366" y="238"/>
    </contour>
    <contour>
      <point x="292" y="206" type="curve" smooth="yes"/>
      <point x="370" y="206"/>
      <point x="394" y="171"/>
      <point x="394" y="130" type="curve" smooth="yes"/>
      <point x="394" y="63"/>
      <point x="340" y="32"/>
      <point x="264" y="32" type="curve" smooth="yes"/>
      <point x="187" y="32"/>
      <point x="161" y="62"/>
      <point x="161" y="110" type="curve" smooth="yes"/>
      <point x="161" y="172"/>
      <point x="213" y="206"/>
    </contour>
  </outline>
</glyph>
<glyph name="AE.alt" format="2">
  <advance width="1149"/>
  <anchor x="730" y="741" name="top"/>
  <outline>
    <contour>
      <point x="313" y="290" type="line"/>
      <point x="290" y="247" type="line"/>
      <point x="648" y="247" type="line"/>
      <point x="655" y="290" type="line"/>
    </contour>
    <contour>
      <point x="9" y="0" type="line"/>
      <point x="249" y="0" type="line"/>
      <point x="255" y="40" type="line"/>
      <point x="245" y="40" type="line" smooth="yes"/>
      <point x="187" y="40"/>
      <point x="144" y="45"/>
      <point x="144" y="58" type="curve"/>
      <point x="676" y="669" type="line"/>
      <point x="695" y="669" type="line"/>
      <point x="602" y="80" type="line" smooth="yes"/>
      <point x="597" y="50"/>
      <point x="557" y="40"/>
      <point x="505" y="40" type="curve" smooth="yes"/>
      <point x="493" y="40" type="line"/>
      <point x="487" y="0" type="line"/>
      <point x="1080" y="0" type="line"/>
      <point x="1115" y="218" type="line"/>
      <point x="1076" y="218" type="line"/>
      <point x="1038" y="87" type="line" smooth="yes"/>
      <point x="1029" y="57"/>
      <point x="986.0" y="44"/>
      <point x="891" y="44" type="curve" smooth="yes"/>
      <point x="645" y="44" type="line"/>
      <point x="743" y="666" type="line"/>
      <point x="951" y="666" type="line" smooth="yes"/>
      <point x="1046.0" y="666.0"/>
      <point x="1086" y="653"/>
      <point x="1085" y="623" type="curve" smooth="yes"/>
      <point x="1082" y="517" type="line"/>
      <point x="1121" y="517" type="line"/>
      <point x="1151" y="710" type="line"/>
      <point x="501" y="710" type="line"/>
      <point x="495" y="670" type="line"/>
      <point x="507" y="670" type="line" smooth="yes"/>
      <point x="560" y="670"/>
      <point x="598" y="660"/>
      <point x="610" y="651" type="curve"/>
      <point x="129" y="108" type="line" smooth="yes"/>
      <point x="89" y="62"/>
      <point x="65" y="40"/>
      <point x="22" y="40" type="curve" smooth="yes"/>
      <point x="15" y="40" type="line"/>
    </contour>
    <contour>
      <point x="674" y="382.0" type="line"/>
      <point x="668" y="343.0" type="line"/>
      <point x="870" y="343.0" type="line" smooth="yes"/>
      <point x="901" y="343.0"/>
      <point x="909" y="320.0"/>
      <point x="904" y="286.0" type="curve" smooth="yes"/>
      <point x="901" y="264.0" type="line"/>
      <point x="947" y="264.0" type="line"/>
      <point x="980" y="462.0" type="line"/>
      <point x="933" y="462.0" type="line"/>
      <point x="930" y="443.0" type="line" smooth="yes"/>
      <point x="923" y="408.0"/>
      <point x="912" y="382.0"/>
      <point x="881" y="382.0" type="curve" smooth="yes"/>
    </contour>
  </outline>
</glyph>
<glyph name="circumflex_grave" format="2">
  <advance width="373"/>
  <guideline x="237" y="615" angle="81" identifier="RECtRNwXzF"/>
  <anchor x="229" y="565" name="_top"/>
  <outline>
    <contour>
      <point x="446" y="919" type="curve" smooth="yes"/>
      <point x="503" y="820" type="line"/>
      <point x="500" y="801" type="line"/>
      <point x="480" y="801" type="line"/>
      <point x="383" y="898" type="line" smooth="yes"/>
      <point x="357" y="924"/>
      <point x="344.0" y="934"/>
      <point x="344" y="955" type="curve" smooth="yes"/>
      <point x="344.0" y="974.0"/>
      <point x="358" y="988"/>
      <point x="380" y="988" type="curve" smooth="yes"/>
      <point x="408" y="988"/>
      <point x="419" y="966"/>
    </contour>
    <contour>
      <point x="295" y="828" type="line"/>
      <point x="421" y="677" type="line"/>
      <point x="418" y="656" type="line"/>
      <point x="399" y="656" type="line"/>
      <point x="255" y="783" type="line"/>
      <point x="279" y="791" type="line"/>
      <point x="129" y="656" type="line"/>
      <point x="104" y="656" type="line"/>
      <point x="107" y="677" type="line"/>
      <point x="235" y="828" type="line"/>
    </contour>
  </outline>
</glyph>
<glyph name="circumflex_hook" format="2">
  <advance width="453"/>
  <guideline x="243" y="638" angle="81" identifier="LOPjONr11X"/>
  <anchor x="250" y="565" name="_top"/>
  <outline>
    <contour>
      <point x="317" y="936" type="line"/>
      <point x="330" y="997"/>
      <point x="381" y="1043"/>
      <point x="466" y="1043" type="curve" smooth="yes"/>
      <point x="575" y="1043.0"/>
      <point x="602" y="995"/>
      <point x="602" y="953" type="curve" smooth="yes"/>
      <point x="602.0" y="880.0"/>
      <point x="541" y="850"/>
      <point x="450" y="847" type="curve"/>
      <point x="482" y="873" type="line"/>
      <point x="469" y="788" type="line"/>
      <point x="422" y="788" type="line"/>
      <point x="437" y="881" type="line"/>
      <point x="509" y="884"/>
      <point x="544" y="902"/>
      <point x="544" y="952" type="curve" smooth="yes"/>
      <point x="544.0" y="980.0"/>
      <point x="526" y="1004.0"/>
      <point x="468" y="1004" type="curve" smooth="yes"/>
      <point x="407" y="1004"/>
      <point x="383" y="973"/>
      <point x="373" y="936" type="curve"/>
    </contour>
    <contour>
      <point x="297" y="828" type="line"/>
      <point x="423" y="677" type="line"/>
      <point x="420" y="656" type="line"/>
      <point x="401" y="656" type="line"/>
      <point x="257" y="783" type="line"/>
      <point x="281" y="791" type="line"/>
      <point x="129" y="656" type="line"/>
      <point x="104" y="656" type="line"/>
      <point x="107" y="677" type="line"/>
      <point x="237" y="828" type="line"/>
    </contour>
  </outline>
</glyph>
<glyph name="eight.prop" format="2">
  <advance width="669"/>
  <outline>
    <contour>
      <point x="350" y="33" type="curve" smooth="yes"/>
      <point x="227" y="33"/>
      <point x="159" y="82"/>
      <point x="159" y="182" type="curve" smooth="yes"/>
      <point x="159" y="304"/>
      <point x="256" y="351"/>
      <point x="380" y="351" type="curve" smooth="yes"/>
      <point x="501" y="351"/>
      <point x="570" y="302"/>
      <point x="570" y="205" type="curve" smooth="yes"/>
      <point x="570" y="80"/>
      <point x="473" y="33"/>
    </contour>
    <contour>
      <point x="407" y="394" type="curve" smooth="yes"/>
      <point x="291" y="394"/>
      <point x="238" y="442"/>
      <point x="238" y="525" type="curve" smooth="yes"/>
      <point x="238" y="630"/>
      <point x="319" y="677"/>
      <point x="432" y="677" type="curve" smooth="yes"/>
      <point x="549" y="677"/>
      <point x="601" y="628"/>
      <point x="601" y="547" type="curve" smooth="yes"/>
      <point x="601" y="441"/>
      <point x="519" y="394"/>
    </contour>
    <contour>
      <point x="346" y="-10" type="curve" smooth="yes"/>
      <point x="519" y="-10"/>
      <point x="627" y="70"/>
      <point x="627" y="210" type="curve" smooth="yes"/>
      <point x="627" y="295"/>
      <point x="571" y="359"/>
      <point x="472" y="375" type="curve"/>
      <point x="508" y="359" type="line"/>
      <point x="513" y="394" type="line"/>
      <point x="472" y="376" type="line"/>
      <point x="576" y="388"/>
      <point x="655" y="442"/>
      <point x="655" y="551" type="curve" smooth="yes"/>
      <point x="655" y="647"/>
      <point x="578" y="720"/>
      <point x="436" y="720" type="curve" smooth="yes"/>
      <point x="277" y="720"/>
      <point x="184" y="643"/>
      <point x="184" y="531" type="curve" smooth="yes"/>
      <point x="184" y="443"/>
      <point x="237" y="399"/>
      <point x="315" y="376" type="curve"/>
      <point x="280" y="394" type="line"/>
      <point x="275" y="359" type="line"/>
      <point x="315" y="375" type="line"/>
      <point x="192" y="359"/>
      <point x="106" y="297"/>
      <point x="102" y="180" type="curve" smooth="yes"/>
      <point x="98" y="72"/>
      <point x="181" y="-10"/>
    </contour>
  </outline>
</glyph>
<glyph name="f_f_h.alt" format="2">
  <advance width="1482"/>
  <outline>
    <contour>
      <point x="475" y="565" type="line"/>
      <point x="469" y="521" type="line"/>
      <point x="878" y="521" type="line"/>
      <point x="884" y="565" type="line"/>
    </contour>
    <contour>
      <point x="530" y="-223" type="line"/>
      <point x="661" y="619" type="line" smooth="yes"/>
      <point x="676" y="713"/>
      <point x="723" y="746"/>
      <point x="822" y="746" type="curve" smooth="yes"/>
      <point x="894" y="746"/>
      <point x="974" y="726"/>
      <point x="1018" y="705" type="curve"/>
      <point x="1031" y="750" type="line"/>
      <point x="987" y="770"/>
      <point x="897" y="790"/>
      <point x="821" y="790" type="curve" smooth="yes"/>
      <point x="697" y="790"/>
      <point x="626" y="734"/>
      <point x="610" y="625" type="curve" smooth="yes"/>
      <point x="487" y="-223" type="line"/>
    </contour>
    <contour>
      <point x="919" y="0" type="line"/>
      <point x="1043" y="780" type="line"/>
      <point x="908" y="768" type="line"/>
      <point x="988" y="734" type="line"/>
      <point x="869" y="0" type="line"/>
    </contour>
    <contour>
      <point x="1321" y="160" type="line" smooth="yes"/>
      <point x="1313" y="111"/>
      <point x="1308" y="84"/>
      <point x="1308" y="63" type="curve" smooth="yes"/>
      <point x="1308" y="18"/>
      <point x="1334" y="0"/>
      <point x="1383" y="0" type="curve" smooth="yes"/>
      <point x="1416" y="0"/>
      <point x="1445" y="0"/>
      <point x="1479" y="0" type="curve"/>
      <point x="1485" y="40" type="line"/>
      <point x="1456" y="40"/>
      <point x="1422" y="40"/>
      <point x="1393" y="40" type="curve" smooth="yes"/>
      <point x="1367" y="40"/>
      <point x="1356" y="48"/>
      <point x="1356" y="70" type="curve" smooth="yes"/>
      <point x="1356" y="80"/>
      <point x="1357" y="91"/>
      <point x="1363" y="126" type="curve" smooth="yes"/>
      <point x="1403" y="381" type="line" smooth="yes"/>
      <point x="1406" y="403"/>
      <point x="1408" y="423"/>
      <point x="1408" y="449" type="curve" smooth="yes"/>
      <point x="1408" y="521"/>
      <point x="1358" y="575"/>
      <point x="1256" y="575" type="curve" smooth="yes"/>
      <point x="1136" y="575"/>
      <point x="1046" y="493"/>
      <point x="951" y="367" type="curve"/>
      <point x="968" y="345" type="line"/>
      <point x="1068" y="475"/>
      <point x="1154" y="531"/>
      <point x="1247" y="531" type="curve" smooth="yes"/>
      <point x="1327" y="531"/>
      <point x="1360" y="493"/>
      <point x="1360" y="434" type="curve" smooth="yes"/>
      <point x="1360" y="416"/>
      <point x="1359" y="406"/>
      <point x="1356" y="384" type="curve" smooth="yes"/>
    </contour>
    <contour>
      <point x="119" y="565" type="line"/>
      <point x="113" y="521" type="line"/>
      <point x="522" y="521" type="line"/>
      <point x="528" y="565" type="line"/>
    </contour>
    <contour>
      <point x="673" y="735" type="line"/>
      <point x="629" y="755"/>
      <point x="539" y="775"/>
      <point x="463" y="775" type="curve" smooth="yes"/>
      <point x="339" y="775"/>
      <point x="268" y="719"/>
      <point x="252" y="610" type="curve" smooth="yes"/>
      <point x="131" y="-223" type="line"/>
      <point x="174" y="-223" type="line"/>
      <point x="303" y="604" type="line" smooth="yes"/>
      <point x="318" y="698"/>
      <point x="365" y="731"/>
      <point x="464" y="731" type="curve" smooth="yes"/>
      <point x="536" y="731"/>
      <point x="616" y="711"/>
      <point x="660" y="690" type="curve"/>
    </contour>
  </outline>
</glyph>
<glyph name="f_f_i.alt" format="2">
  <advance width="1079"/>
  <outline>
    <contour>
      <point x="119" y="565" type="line"/>
      <point x="113" y="521" type="line"/>
      <point x="522" y="521" type="line"/>
      <point x="528" y="565" type="line"/>
    </contour>
    <contour>
      <point x="826" y="747" type="curve" smooth="yes"/>
      <point x="889" y="747"/>
      <point x="951" y="733"/>
      <point x="995" y="718" type="curve"/>
      <point x="995" y="731"/>
      <point x="977" y="751"/>
      <point x="961" y="755" type="curve"/>
      <point x="946" y="665" type="line"/>
      <point x="1006" y="665" type="line"/>
      <point x="1023" y="760" type="line"/>
      <point x="992" y="772"/>
      <point x="902" y="791"/>
      <point x="822" y="790" type="curve" smooth="yes"/>
      <point x="688" y="789"/>
      <point x="626" y="734"/>
      <point x="612" y="635" type="curve" smooth="yes"/>
      <point x="489" y="-223" type="line"/>
      <point x="532" y="-223" type="line"/>
      <point x="664" y="629" type="line" smooth="yes"/>
      <point x="678" y="718"/>
      <point x="715" y="747.0"/>
    </contour>
    <contour>
      <point x="476" y="565" type="line"/>
      <point x="470" y="521" type="line"/>
      <point x="877" y="521" type="line" smooth="yes"/>
      <point x="944.0" y="521.0"/>
      <point x="955" y="511"/>
      <point x="950" y="477" type="curve" smooth="yes"/>
      <point x="899" y="155" type="line" smooth="yes"/>
      <point x="891" y="106"/>
      <point x="887" y="84"/>
      <point x="887" y="63" type="curve" smooth="yes"/>
      <point x="887" y="18"/>
      <point x="913" y="0"/>
      <point x="962" y="0" type="curve" smooth="yes"/>
      <point x="995" y="0"/>
      <point x="1023" y="0"/>
      <point x="1057" y="0" type="curve"/>
      <point x="1063" y="40" type="line"/>
      <point x="1034" y="40"/>
      <point x="1004" y="40"/>
      <point x="975" y="40" type="curve" smooth="yes"/>
      <point x="949" y="40"/>
      <point x="936" y="48"/>
      <point x="936" y="70" type="curve" smooth="yes"/>
      <point x="936" y="80"/>
      <point x="937" y="91"/>
      <point x="942" y="126" type="curve" smooth="yes"/>
      <point x="1011" y="565" type="line"/>
    </contour>
    <contour>
      <point x="466" y="732" type="curve" smooth="yes"/>
      <point x="532" y="732"/>
      <point x="615" y="714"/>
      <point x="661" y="693" type="curve"/>
      <point x="661" y="706"/>
      <point x="642" y="721"/>
      <point x="626" y="725" type="curve"/>
      <point x="612" y="635" type="line"/>
      <point x="662" y="635" type="line"/>
      <point x="680" y="736" type="line"/>
      <point x="649" y="752"/>
      <point x="542" y="776"/>
      <point x="462" y="775" type="curve" smooth="yes"/>
      <point x="328" y="774"/>
      <point x="266" y="719"/>
      <point x="252" y="620" type="curve" smooth="yes"/>
      <point x="131" y="-223" type="line"/>
      <point x="174" y="-223" type="line"/>
      <point x="304" y="614" type="line" smooth="yes"/>
      <point x="318" y="703"/>
      <point x="355" y="732"/>
    </contour>
  </outline>
</glyph>
<glyph name="f_f_j.alt" format="2">
  <advance width="1065"/>
  <outline>
    <contour>
      <point x="119" y="565" type="line"/>
      <point x="113" y="521" type="line"/>
      <point x="522" y="521" type="line"/>
      <point x="528" y="565" type="line"/>
    </contour>
    <contour>
      <point x="743" y="-250" type="curve" smooth="yes"/>
      <point x="833" y="-250"/>
      <point x="890" y="-204"/>
      <point x="906" y="-100" type="curve" smooth="yes"/>
      <point x="1011" y="565" type="line"/>
      <point x="476" y="565" type="line"/>
      <point x="470" y="521" type="line"/>
      <point x="877" y="521" type="line" smooth="yes"/>
      <point x="944.0" y="521.0"/>
      <point x="955" y="511"/>
      <point x="950" y="477" type="curve" smooth="yes"/>
      <point x="860" y="-89" type="line" smooth="yes"/>
      <point x="845" y="-185"/>
      <point x="808" y="-210"/>
      <point x="742" y="-210" type="curve" smooth="yes"/>
      <point x="703" y="-210"/>
      <point x="669" y="-201"/>
      <point x="638" y="-188" type="curve"/>
      <point x="632" y="-230" type="line"/>
      <point x="648" y="-239"/>
      <point x="691" y="-250"/>
    </contour>
    <contour>
      <point x="489" y="-223" type="line"/>
      <point x="532" y="-223" type="line"/>
      <point x="664" y="629" type="line" smooth="yes"/>
      <point x="678" y="718"/>
      <point x="715" y="747.0"/>
      <point x="826" y="747" type="curve" smooth="yes"/>
      <point x="889" y="747"/>
      <point x="951" y="733"/>
      <point x="995" y="718" type="curve"/>
      <point x="995" y="731"/>
      <point x="977" y="751"/>
      <point x="961" y="755" type="curve"/>
      <point x="946" y="665" type="line"/>
      <point x="1006" y="665" type="line"/>
      <point x="1023" y="760" type="line"/>
      <point x="992" y="772"/>
      <point x="902" y="791"/>
      <point x="822" y="790" type="curve" smooth="yes"/>
      <point x="688" y="789"/>
      <point x="626" y="734"/>
      <point x="612" y="635" type="curve" smooth="yes"/>
    </contour>
    <contour>
      <point x="131" y="-223" type="line"/>
      <point x="174" y="-223" type="line"/>
      <point x="303" y="604" type="line" smooth="yes"/>
      <point x="318" y="698"/>
      <point x="365" y="731"/>
      <point x="464" y="731" type="curve" smooth="yes"/>
      <point x="536" y="731"/>
      <point x="616" y="711"/>
      <point x="660" y="690" type="curve"/>
      <point x="673" y="735" type="line"/>
      <point x="629" y="755"/>
      <point x="539" y="775"/>
      <point x="463" y="775" type="curve" smooth="yes"/>
      <point x="339" y="775"/>
      <point x="268" y="719"/>
      <point x="252" y="610" type="curve" smooth="yes"/>
    </contour>
  </outline>
</glyph>
<glyph name="four.linprop" format="2">
  <advance width="684"/>
  <guideline x="85" y="198" angle="81" identifier="ZAjHhmvMJx"/>
  <guideline x="539" y="195" angle="81" identifier="bbCV9fXRV7"/>
  <outline>
    <contour>
      <point x="550" y="710" type="line"/>
      <point x="558" y="698" type="line"/>
      <point x="460" y="80" type="line" smooth="yes"/>
      <point x="455" y="50"/>
      <point x="424" y="40"/>
      <point x="364" y="40" type="curve" smooth="yes"/>
      <point x="341" y="40" type="line"/>
      <point x="335" y="0" type="line"/>
      <point x="605" y="0" type="line"/>
      <point x="611" y="40" type="line"/>
      <point x="592" y="40" type="line" smooth="yes"/>
      <point x="532" y="40"/>
      <point x="503" y="50"/>
      <point x="508" y="80" type="curve" smooth="yes"/>
      <point x="607" y="710" type="line"/>
    </contour>
    <contour>
      <point x="77" y="222" type="line"/>
      <point x="669" y="222" type="line"/>
      <point x="676" y="263" type="line"/>
      <point x="113" y="263" type="line"/>
      <point x="111" y="247" type="line"/>
      <point x="581" y="706" type="line"/>
      <point x="572" y="710" type="line"/>
      <point x="531" y="710" type="line"/>
      <point x="84" y="275" type="line"/>
    </contour>
  </outline>
</glyph>
<glyph name="four.oldprop" format="2">
  <advance width="672"/>
  <outline>
    <contour>
      <point x="68" y="115" type="line"/>
      <point x="675" y="115" type="line"/>
      <point x="682" y="161" type="line"/>
      <point x="95" y="161" type="line"/>
      <point x="107" y="137" type="line"/>
      <point x="596" y="638" type="line"/>
      <point x="583" y="639" type="line"/>
      <point x="542" y="639" type="line"/>
      <point x="76" y="164" type="line"/>
    </contour>
    <contour>
      <point x="499" y="-83" type="line"/>
      <point x="613" y="639" type="line"/>
      <point x="548" y="639" type="line"/>
      <point x="563" y="627" type="line"/>
      <point x="451" y="-83" type="line"/>
    </contour>
  </outline>
</glyph>
<glyph name="one.oldtab" format="2">
  <advance width="680"/>
  <guideline x="237" y="631" angle="81" identifier="b9njG4HsET"/>
  <outline>
    <contour>
      <point x="394" y="80.0" type="curve" smooth="yes"/>
      <point x="482" y="639.0" type="line"/>
      <point x="439" y="639.0" type="line"/>
      <point x="398" y="558.0"/>
      <point x="331" y="536.0"/>
      <point x="188" y="533.0" type="curve"/>
      <point x="181" y="484.0" type="line"/>
      <point x="315" y="484.0"/>
      <point x="413" y="522.0"/>
      <point x="442" y="594.0" type="curve"/>
      <point x="435" y="597.0"/>
      <point x="435" y="580.0"/>
      <point x="424" y="580.0" type="curve"/>
      <point x="345" y="80.0" type="line" smooth="yes"/>
      <point x="340" y="50.0"/>
      <point x="317" y="40.0"/>
      <point x="249" y="40.0" type="curve" smooth="yes"/>
      <point x="127" y="40.0" type="line"/>
      <point x="121" y="0.0" type="line"/>
      <point x="578" y="0.0" type="line"/>
      <point x="584" y="40.0" type="line"/>
      <point x="477" y="40.0" type="line" smooth="yes"/>
      <point x="417" y="40.0"/>
      <point x="389" y="50"/>
    </contour>
  </outline>
</glyph>
<glyph name="parenleft.uc" format="2">
  <advance width="409"/>
  <outline>
    <contour>
      <point x="313" y="-80" type="curve"/>
      <point x="366" y="-80" type="line"/>
      <point x="367" y="-77" type="line"/>
      <point x="280" y="1"/>
      <point x="188" y="120"/>
      <point x="188" y="293" type="curve" smooth="yes"/>
      <point x="188" y="507"/>
      <point x="308" y="650"/>
      <point x="494" y="747" type="curve"/>
      <point x="495" y="750" type="line"/>
      <point x="434" y="750" type="line"/>
      <point x="271" y="673"/>
      <point x="133" y="504"/>
      <point x="133" y="296" type="curve" smooth="yes"/>
      <point x="133" y="119"/>
      <point x="226" y="-6"/>
    </contour>
  </outline>
</glyph>
<glyph name="ringhalfleft" format="2">
  <advance width="530"/>
  <anchor x="377" y="566" name="_top"/>
  <outline>
    <contour>
      <point x="438.0" y="679" type="line"/>
      <point x="393.0" y="679"/>
      <point x="360.0" y="702"/>
      <point x="360.0" y="753" type="curve" smooth="yes"/>
      <point x="360.0" y="804"/>
      <point x="393.0" y="827"/>
      <point x="438.0" y="827" type="curve"/>
      <point x="438.0" y="862" type="line"/>
      <point x="364.0" y="862"/>
      <point x="315.0" y="817"/>
      <point x="315.0" y="753" type="curve" smooth="yes"/>
      <point x="315.0" y="689"/>
      <point x="364.0" y="644"/>
      <point x="438.0" y="644" type="curve"/>
    </contour>
  </outline>
</glyph>
<glyph name="zero.slashlintab" format="2">
  <advance width="680"/>
  <outline>
    <contour>
      <point x="367.0" y="-11.0" type="curve" smooth="yes"/>
      <point x="569.0" y="-11.0"/>
      <point x="654.0" y="216.0"/>
      <point x="654.0" y="423.0" type="curve" smooth="yes"/>
      <point x="654.0" y="618.0"/>
      <point x="585.0" y="735.0"/>
      <point x="429.0" y="735.0" type="curve" smooth="yes"/>
      <point x="226.0" y="735.0"/>
      <point x="142.0" y="508.0"/>
      <point x="142.0" y="301.0" type="curve" smooth="yes"/>
      <point x="142.0" y="95.0"/>
      <point x="219.0" y="-11.0"/>
    </contour>
    <contour>
      <point x="372.0" y="32.5" type="curve" smooth="yes"/>
      <point x="237.0" y="32.5"/>
      <point x="200.0" y="147.5"/>
      <point x="200.0" y="290.5" type="curve" smooth="yes"/>
      <point x="200.0" y="526.5"/>
      <point x="281.0" y="691.5"/>
      <point x="424.0" y="691.5" type="curve" smooth="yes"/>
      <point x="559.0" y="691.5"/>
      <point x="596.0" y="577.5"/>
      <point x="596.0" y="434.5" type="curve" smooth="yes"/>
      <point x="596.0" y="203.5"/>
      <point x="516.0" y="32.5"/>
    </contour>
    <contour>
      <point x="192.5" y="169.0" type="line"/>
      <point x="624.5" y="515.0" type="line"/>
      <point x="606.5" y="555.0" type="line"/>
      <point x="171.5" y="205.0" type="line"/>
    </contour>
  </outline>
</glyph>
<glyph name="zero.slasholdprop" format="2">
  <advance width="711"/>
  <outline>
    <contour>
      <point x="178.0" y="121.0" type="line"/>
      <point x="660.0" y="477.0" type="line"/>
      <point x="638.0" y="517.0" type="line"/>
      <point x="153.0" y="157.0" type="line"/>
    </contour>
    <contour>
      <point x="435.5" y="608.0" type="curve"/>
      <point x="579.5" y="608.0"/>
      <point x="638.5" y="506.0"/>
      <point x="638.5" y="367.0" type="curve" smooth="yes"/>
      <point x="638.5" y="165.0"/>
      <point x="538.5" y="30.0"/>
      <point x="378.5" y="30.0" type="curve"/>
      <point x="235.5" y="30.0"/>
      <point x="174.5" y="129.0"/>
      <point x="174.5" y="268.0" type="curve" smooth="yes"/>
      <point x="174.5" y="476.0"/>
      <point x="274.5" y="608.0"/>
    </contour>
    <contour>
      <point x="434.0" y="649.0" type="curve"/>
      <point x="232.0" y="649.0"/>
      <point x="118.0" y="484.0"/>
      <point x="118.0" y="277.0" type="curve" smooth="yes"/>
      <point x="118.0" y="99.0"/>
      <point x="209.0" y="-11.0"/>
      <point x="379.0" y="-11.0" type="curve"/>
      <point x="580.0" y="-11.0"/>
      <point x="695.0" y="154.0"/>
      <point x="695.0" y="362.0" type="curve" smooth="yes"/>
      <point x="695.0" y="540.0"/>
      <point x="604.0" y="649.0"/>
    </contour>
  </outline>
</glyph>
